<svg width="16" height="16" viewBox="0 0 16 16" fill="none" xmlns="http://www.w3.org/2000/svg">
<g id="size=Default" clip-path="url(#clip0_1_157)">
<path id="plain-bar" d="M11.6586 14.8365C10.9562 15.5386 9.81691 15.5386 9.11456 14.8365L0.528375 6.25035C-0.174009 5.54779 -0.174009 5.04459 0.528375 4.34221L4.34429 0.526116C5.04685 -0.176267 5.55005 -0.176267 6.2526 0.526116L14.8388 9.11231C15.5414 9.81487 15.5414 10.954 14.8388 11.6565L11.6586 14.8365Z" fill="#BF684C"/>
<path id="bar-grid" d="M7.27048 6.6323L5.07349 4.43531L7.61765 1.89132L6.98127 1.25546L4.43759 3.79945L2.75423 2.11622L2.11837 2.75243L3.80173 4.43531L1.25757 6.97947L1.89342 7.61533L4.43759 5.07134L6.63458 7.26815L7.27048 6.6323Z" fill="#8A4A35"/>
<path id="red-wrap" d="M11.6586 15.4726C10.9562 16.1749 9.81696 16.1749 9.11462 15.4726L4.66284 11.0208L11.0227 4.66092L15.4745 9.11269C16.1769 9.81525 16.1769 10.9543 15.4745 11.6569L11.6586 15.4726Z" fill="#DC2E42"/>
<path id="shading-below-grey" d="M5.58118 11.9393L7.68287 14.0413L11.2604 4.89805L11.0229 4.66017L10.3466 4.24103L5.58118 11.9393Z" fill="#BD1730"/>
<path id="grey-wrap" d="M10.0687 3.7063L11.0226 4.66021C10.7048 5.6146 7.20671 11.6565 6.57042 12.9286C6.57042 12.9286 6.25257 13.8825 5.45743 13.0879L3.07199 10.7024C2.76676 10.397 2.76403 9.73917 3.07199 9.43067L8.7967 3.7064C9.43273 3.07054 10.069 3.7064 10.069 3.7064L10.0687 3.7063Z" fill="#CAD4DC"/>
</g>
<defs>
<clipPath id="clip0_1_157">
<rect width="16" height="16" fill="white"/>
</clipPath>
</defs>
</svg>
