<svg width="141" height="50" viewBox="0 0 141 50" fill="none" xmlns="http://www.w3.org/2000/svg">
<path d="M15.6557 40.1728C12.9139 40.1728 10.5293 39.6774 8.50176 38.6867C6.47424 37.673 4.91904 36.2445 3.83616 34.4013C2.75328 32.5581 2.21184 30.4154 2.21184 27.9731C2.21184 24.5862 2.84544 21.5795 4.11264 18.953C5.40288 16.3264 7.1424 14.2989 9.3312 12.8704C11.52 11.4189 13.9507 10.6931 16.6234 10.6931C19.1117 10.6931 21.001 11.3382 22.2912 12.6285C23.5814 13.8957 24.2266 15.5776 24.2266 17.6742C24.2266 19.0797 23.9731 20.2086 23.4662 21.0611C22.9824 21.9136 22.2797 22.3398 21.3581 22.3398C20.713 22.3398 20.2061 22.1901 19.8374 21.8906C19.4688 21.591 19.2845 21.1533 19.2845 20.5773C19.2845 20.3699 19.3306 19.9898 19.4227 19.4368C19.561 18.7456 19.6301 18.1926 19.6301 17.7779C19.6301 15.6813 18.5126 14.633 16.2778 14.633C14.7571 14.633 13.3056 15.1283 11.9232 16.119C10.5408 17.1098 9.42336 18.5728 8.57088 20.5082C7.7184 22.4205 7.29216 24.7014 7.29216 27.351C7.29216 30.1158 8.064 32.2586 9.60768 33.7792C11.1514 35.2768 13.4323 36.0256 16.4506 36.0256C17.9482 36.0256 19.4573 35.8413 20.9779 35.4726C22.5216 35.081 24.2266 34.4934 26.0928 33.7101C26.4384 33.5718 26.7264 33.5027 26.9568 33.5027C27.3254 33.5027 27.6019 33.641 27.7862 33.9174C27.9706 34.1939 28.0627 34.551 28.0627 34.9888C28.0627 36.3942 27.3024 37.431 25.7818 38.0992C24.1459 38.8134 22.441 39.3434 20.6669 39.689C18.9158 40.0115 17.2454 40.1728 15.6557 40.1728ZM44.5322 32.2931C44.8317 32.2931 45.0621 32.4314 45.2234 32.7078C45.4077 32.9843 45.4999 33.3645 45.4999 33.8483C45.4999 34.7699 45.281 35.4842 44.8432 35.991C43.7834 37.2122 42.689 38.2144 41.56 38.9978C40.4541 39.7811 39.1869 40.1728 37.7584 40.1728C36.5834 40.1728 35.6963 39.8387 35.0973 39.1706C34.4983 38.4794 34.1987 37.4886 34.1987 36.1984C34.1987 35.5533 34.36 34.4013 34.6826 32.7424C34.9821 31.2909 35.1319 30.2886 35.1319 29.7357C35.1319 29.367 35.0051 29.1827 34.7517 29.1827C34.4522 29.1827 34.0259 29.5744 33.473 30.3578C32.92 31.1181 32.3671 32.1318 31.8141 33.399C31.2611 34.6662 30.8119 36.0026 30.4663 37.408C30.0285 39.2512 28.9456 40.1728 27.2176 40.1728C26.5264 40.1728 26.0656 39.9309 25.8352 39.447C25.6279 38.9402 25.5242 38.0416 25.5242 36.7514C25.5242 36.0141 25.5357 35.4266 25.5587 34.9888L25.5933 32.224C25.5933 28.6758 25.9504 24.9779 26.6647 21.1302C27.4019 17.2826 28.4733 14.057 29.8787 11.4534C31.3072 8.82688 33.0122 7.5136 34.9936 7.5136C36.0535 7.5136 36.9059 7.9744 37.5511 8.896C38.2192 9.79456 38.5533 10.9696 38.5533 12.4211C38.5533 14.7482 37.8736 17.1674 36.5143 19.6787C35.1549 22.167 32.9431 25.0816 29.8787 28.4224C29.8096 29.6205 29.7751 30.8531 29.7751 32.1203C30.5354 30.1619 31.3763 28.5722 32.2979 27.351C33.2426 26.1069 34.1642 25.2198 35.0627 24.6899C35.9843 24.16 36.8253 23.895 37.5856 23.895C39.0832 23.895 39.832 24.6438 39.832 26.1414C39.832 27.04 39.5786 28.6643 39.0717 31.0144C38.6339 33.0189 38.4151 34.3437 38.4151 34.9888C38.4151 35.9104 38.7491 36.3712 39.4173 36.3712C39.8781 36.3712 40.4195 36.0947 41.0416 35.5418C41.6867 34.9658 42.5392 34.0442 43.5991 32.777C43.8755 32.4544 44.1866 32.2931 44.5322 32.2931ZM34.2679 10.935C33.8531 10.935 33.3923 11.5341 32.8855 12.7322C32.3786 13.9072 31.8832 15.5085 31.3994 17.536C30.9386 19.5405 30.5584 21.7293 30.2589 24.1024C31.6874 22.4205 32.8624 20.5888 33.784 18.6074C34.7287 16.6259 35.201 14.8288 35.201 13.216C35.201 12.4787 35.1203 11.9142 34.9591 11.5226C34.7978 11.1309 34.5674 10.935 34.2679 10.935ZM60.3245 29.3901C60.624 29.3901 60.8544 29.5398 61.0157 29.8394C61.177 30.1389 61.2576 30.519 61.2576 30.9798C61.2576 32.0858 60.9235 32.7424 60.2554 32.9498C58.873 33.4336 57.3523 33.7101 55.6934 33.7792C55.2557 35.7146 54.3917 37.2698 53.1014 38.4448C51.8112 39.5968 50.3482 40.1728 48.7123 40.1728C47.3299 40.1728 46.1434 39.8387 45.1526 39.1706C44.185 38.5024 43.4477 37.6154 42.9408 36.5094C42.4339 35.4035 42.1805 34.2054 42.1805 32.9152C42.1805 31.1642 42.5146 29.609 43.1827 28.2496C43.8509 26.8672 44.7725 25.7958 45.9475 25.0355C47.1226 24.2522 48.4243 23.8605 49.8528 23.8605C51.6038 23.8605 53.0093 24.471 54.0691 25.6922C55.152 26.8902 55.7856 28.3763 55.9699 30.1504C57.0528 30.0813 58.343 29.8509 59.8406 29.4592C60.025 29.4131 60.1862 29.3901 60.3245 29.3901ZM48.9888 36.5094C49.7261 36.5094 50.3597 36.2099 50.8896 35.6109C51.4426 35.0118 51.8112 34.1478 51.9955 33.0189C51.2813 32.535 50.7283 31.9014 50.3366 31.1181C49.968 30.3347 49.7837 29.5053 49.7837 28.6298C49.7837 28.2611 49.8182 27.8925 49.8874 27.5238H49.7146C48.793 27.5238 48.0211 27.9731 47.399 28.8717C46.8 29.7472 46.5005 30.9914 46.5005 32.6042C46.5005 33.8714 46.7424 34.839 47.2262 35.5072C47.7331 36.1754 48.3206 36.5094 48.9888 36.5094ZM64.8923 40.1728C62.6344 40.1728 60.8719 39.5392 59.6047 38.272C58.3605 36.9818 57.7384 35.2883 57.7384 33.1917C57.7384 31.3254 58.1071 29.6896 58.8443 28.2842C59.5816 26.8787 60.5378 25.7958 61.7128 25.0355C62.8879 24.2752 64.1205 23.895 65.4107 23.895C66.6779 23.895 67.6571 24.2752 68.3483 25.0355C69.0626 25.7728 69.4197 26.729 69.4197 27.904C69.4197 28.8717 69.2008 29.6896 68.7631 30.3578C68.3483 31.0259 67.7954 31.36 67.1042 31.36C66.6664 31.36 66.3093 31.2563 66.0328 31.049C65.7794 30.8416 65.6527 30.5536 65.6527 30.185C65.6527 30.0237 65.6757 29.8394 65.7218 29.632C65.7679 29.4246 65.8024 29.2749 65.8255 29.1827C65.9407 28.8371 65.9983 28.5146 65.9983 28.215C65.9983 27.9155 65.9176 27.6851 65.7563 27.5238C65.6181 27.3626 65.4107 27.2819 65.1343 27.2819C64.6043 27.2819 64.109 27.5238 63.6482 28.0077C63.1874 28.4685 62.8187 29.1021 62.5423 29.9085C62.2658 30.7149 62.1275 31.6019 62.1275 32.5696C62.1275 35.2422 63.2911 36.5786 65.6181 36.5786C66.5627 36.5786 67.5765 36.2675 68.6594 35.6454C69.7653 35.0003 70.8482 34.0442 71.908 32.777C72.1845 32.4544 72.4955 32.2931 72.8411 32.2931C73.1407 32.2931 73.3711 32.4314 73.5323 32.7078C73.7167 32.9843 73.8088 33.3645 73.8088 33.8483C73.8088 34.7238 73.5899 35.4381 73.1522 35.991C72.0693 37.3274 70.7675 38.3642 69.2469 39.1014C67.7493 39.8157 66.2978 40.1728 64.8923 40.1728ZM88.6407 29.3901C88.9403 29.3901 89.1707 29.5398 89.3319 29.8394C89.4932 30.1389 89.5739 30.519 89.5739 30.9798C89.5739 32.0858 89.2398 32.7424 88.5716 32.9498C87.1892 33.4336 85.6686 33.7101 84.0097 33.7792C83.5719 35.7146 82.7079 37.2698 81.4177 38.4448C80.1275 39.5968 78.6644 40.1728 77.0286 40.1728C75.6462 40.1728 74.4596 39.8387 73.4689 39.1706C72.5012 38.5024 71.7639 37.6154 71.2571 36.5094C70.7502 35.4035 70.4967 34.2054 70.4967 32.9152C70.4967 31.1642 70.8308 29.609 71.499 28.2496C72.1671 26.8672 73.0887 25.7958 74.2638 25.0355C75.4388 24.2522 76.7406 23.8605 78.1691 23.8605C79.9201 23.8605 81.3255 24.471 82.3854 25.6922C83.4683 26.8902 84.1019 28.3763 84.2862 30.1504C85.3691 30.0813 86.6593 29.8509 88.1569 29.4592C88.3412 29.4131 88.5025 29.3901 88.6407 29.3901ZM77.3051 36.5094C78.0423 36.5094 78.6759 36.2099 79.2059 35.6109C79.7588 35.0118 80.1275 34.1478 80.3118 33.0189C79.5975 32.535 79.0446 31.9014 78.6529 31.1181C78.2843 30.3347 78.0999 29.5053 78.0999 28.6298C78.0999 28.2611 78.1345 27.8925 78.2036 27.5238H78.0308C77.1092 27.5238 76.3374 27.9731 75.7153 28.8717C75.1163 29.7472 74.8167 30.9914 74.8167 32.6042C74.8167 33.8714 75.0587 34.839 75.5425 35.5072C76.0494 36.1754 76.6369 36.5094 77.3051 36.5094ZM99.7059 32.2931C100.005 32.2931 100.236 32.4314 100.397 32.7078C100.581 32.9843 100.674 33.3645 100.674 33.8483C100.674 34.7699 100.455 35.4842 100.017 35.991C99.0262 37.2122 97.9433 38.2144 96.7683 38.9978C95.6163 39.7811 94.303 40.1728 92.8284 40.1728C90.8009 40.1728 89.2918 39.2512 88.3011 37.408C87.3334 35.5648 86.8496 33.1802 86.8496 30.2541C86.8496 27.4432 87.2067 24.2406 87.9209 20.6464C88.6582 17.0522 89.7296 13.9648 91.135 11.3843C92.5635 8.80384 94.2569 7.5136 96.2153 7.5136C97.3212 7.5136 98.1852 8.032 98.8073 9.0688C99.4524 10.0826 99.775 11.5456 99.775 13.4579C99.775 16.1997 99.0147 19.3792 97.494 22.9965C95.9734 26.6138 93.9113 30.1965 91.3078 33.7446C91.4691 34.6893 91.734 35.369 92.1027 35.7837C92.4713 36.1754 92.9552 36.3712 93.5542 36.3712C94.4988 36.3712 95.3283 36.1062 96.0425 35.5763C96.7568 35.0234 97.6668 34.0902 98.7728 32.777C99.0492 32.4544 99.3603 32.2931 99.7059 32.2931ZM95.455 10.935C94.9251 10.935 94.326 11.8912 93.6579 13.8035C92.9897 15.7158 92.4022 18.089 91.8953 20.9229C91.3884 23.7568 91.112 26.4755 91.0659 29.079C92.7017 26.3834 94.0035 23.6877 94.9712 20.992C95.9388 18.2733 96.4227 15.7965 96.4227 13.5616C96.4227 11.8106 96.1001 10.935 95.455 10.935ZM101.794 40.1728C100.365 40.1728 99.2246 39.6544 98.3721 38.6176C97.5196 37.5808 97.0934 36.2214 97.0934 34.5395C97.0934 32.6963 97.5196 30.9568 98.3721 29.321C99.2246 27.6621 100.354 26.3373 101.759 25.3466C103.187 24.3328 104.697 23.8259 106.286 23.8259C106.793 23.8259 107.127 23.9296 107.289 24.137C107.473 24.3213 107.623 24.6669 107.738 25.1738C108.222 25.0816 108.729 25.0355 109.258 25.0355C110.387 25.0355 110.952 25.4387 110.952 26.2451C110.952 26.729 110.779 27.881 110.434 29.7011C109.904 32.3507 109.639 34.1939 109.639 35.2307C109.639 35.5763 109.719 35.8528 109.881 36.0602C110.065 36.2675 110.295 36.3712 110.572 36.3712C111.01 36.3712 111.539 36.0947 112.162 35.5418C112.784 34.9658 113.625 34.0442 114.684 32.777C114.961 32.4544 115.272 32.2931 115.618 32.2931C115.917 32.2931 116.147 32.4314 116.309 32.7078C116.493 32.9843 116.585 33.3645 116.585 33.8483C116.585 34.7699 116.366 35.4842 115.929 35.991C114.984 37.1661 113.982 38.1568 112.922 38.9632C111.862 39.7696 110.837 40.1728 109.846 40.1728C109.086 40.1728 108.383 39.9194 107.738 39.4125C107.116 38.8826 106.643 38.1683 106.321 37.2698C105.123 39.2051 103.614 40.1728 101.794 40.1728ZM103.038 36.6822C103.545 36.6822 104.028 36.3827 104.489 35.7837C104.95 35.1846 105.284 34.3898 105.491 33.399L106.77 27.04C105.802 27.063 104.904 27.4317 104.074 28.1459C103.268 28.8371 102.623 29.7587 102.139 30.9107C101.655 32.0627 101.413 33.2838 101.413 34.5741C101.413 35.2883 101.552 35.8182 101.828 36.1638C102.128 36.5094 102.531 36.6822 103.038 36.6822ZM129.19 32.2931C129.49 32.2931 129.72 32.4314 129.881 32.7078C130.066 32.9843 130.158 33.3645 130.158 33.8483C130.158 34.7699 129.939 35.4842 129.501 35.991C128.51 37.2122 127.428 38.2144 126.253 38.9978C125.078 39.7811 123.73 40.1728 122.209 40.1728C117.509 40.1728 115.159 36.8666 115.159 30.2541C115.159 29.2403 115.193 28.215 115.262 27.1782H113.915C113.223 27.1782 112.751 27.0515 112.498 26.7981C112.267 26.5446 112.152 26.1414 112.152 25.5885C112.152 24.2982 112.67 23.6531 113.707 23.6531H115.677C116.069 21.1187 116.668 18.8032 117.474 16.7066C118.281 14.6099 119.248 12.9395 120.377 11.6954C121.529 10.4512 122.762 9.82912 124.075 9.82912C125.043 9.82912 125.803 10.2554 126.356 11.1078C126.909 11.9603 127.186 13.0317 127.186 14.3219C127.186 17.8931 125.688 21.0035 122.693 23.6531H126.564C126.932 23.6531 127.197 23.7338 127.358 23.895C127.52 24.0563 127.6 24.3558 127.6 24.7936C127.6 26.3834 126.299 27.1782 123.695 27.1782H119.479C119.433 28.3302 119.41 29.2288 119.41 29.8739C119.41 32.2701 119.686 33.952 120.239 34.9197C120.815 35.8874 121.714 36.3712 122.935 36.3712C123.926 36.3712 124.801 36.0717 125.561 35.4726C126.322 34.8736 127.22 33.975 128.257 32.777C128.534 32.4544 128.845 32.2931 129.19 32.2931ZM123.142 13.1469C122.797 13.1469 122.405 13.5846 121.967 14.4602C121.552 15.3126 121.149 16.5107 120.758 18.0544C120.389 19.575 120.078 21.2685 119.824 23.1347C121.184 21.9597 122.198 20.6464 122.866 19.1949C123.557 17.7203 123.902 16.384 123.902 15.1859C123.902 13.8266 123.649 13.1469 123.142 13.1469ZM139.716 33.3299C140.016 33.3299 140.246 33.4682 140.408 33.7446C140.592 34.0211 140.684 34.4013 140.684 34.8851C140.684 35.7146 140.488 36.4288 140.097 37.0278C139.451 38.0186 138.599 38.7904 137.539 39.3434C136.502 39.8963 135.258 40.1728 133.807 40.1728C131.595 40.1728 129.878 39.5162 128.657 38.2029C127.436 36.8666 126.825 35.0694 126.825 32.8115C126.825 31.2218 127.16 29.7472 127.828 28.3878C128.496 27.0054 129.417 25.911 130.593 25.1046C131.791 24.2982 133.138 23.895 134.636 23.895C135.972 23.895 137.044 24.2982 137.85 25.1046C138.657 25.888 139.06 26.9594 139.06 28.3187C139.06 29.9085 138.484 31.2794 137.332 32.4314C136.203 33.5603 134.267 34.4589 131.526 35.127C132.079 36.1869 133.012 36.7168 134.325 36.7168C135.27 36.7168 136.041 36.4979 136.641 36.0602C137.263 35.6224 137.977 34.8851 138.783 33.8483C139.06 33.5027 139.371 33.3299 139.716 33.3299ZM134.049 27.2819C133.196 27.2819 132.47 27.7773 131.871 28.768C131.295 29.7587 131.007 30.9568 131.007 32.3622V32.4314C132.367 32.1088 133.438 31.625 134.221 30.9798C135.005 30.3347 135.396 29.5859 135.396 28.7334C135.396 28.2957 135.27 27.9501 135.016 27.6966C134.786 27.4202 134.463 27.2819 134.049 27.2819Z" fill="#0D0D0D"/>
</svg>
